# xmcd
#
# Track frame offsets:
#	150
#	32300
#	55410
#	105774
#	140992
#
# Disc length: 2274 seconds
#
# Revision: 1
# Processed by: cddbd v1.5.2PL0 Copyright (c) Steve Scherf et al.
# Submitted via: audiograbber 1.83.01
#
DISCID=3a08e005
DTITLE=Grateful Dead - 80-10-26 Radio City Music Hall, New York NY
DYEAR=1900
DGENRE=
TTITLE0=Space
TTITLE1=Not Fade Away
TTITLE2=Stella Blue
TTITLE3=Good Lovin'
TTITLE4=Brokedown Palace
EXTD=
EXTT0=
EXTT1=
EXTT2=
EXTT3=
EXTT4=
PLAYORDER=
